#!OML:ASF F:\VICON\USERDATA\INSTALL\rory3\rory3.ASF
:FULLY-SPECIFIED
:DEGREES
81
root 0.1024877502709734 17.87153987339985 33.46152468218937 -1.7212770106480728 -4.742945532660668 -7.574279396578721
lfemur -25.18086107983215 -0.7484836300531055 -10.950618727666793
ltibia 37.36772401173289
lfoot -6.390924545616624 6.035975391876776
ltoes -4.546431384932994
rfemur -0.16544723592766886 6.06521950513047 34.87954420753963
rtibia 26.828494684669707
rfoot -19.040879331140523 -6.680017356167037
rtoes 7.221456982335527
lowerback 9.589791688178488 2.1075902717166506 6.815116218465931
upperback 0.5338930206216079 3.640632929544 2.263120854741498
thorax -4.710206491659912 1.6832143250214482 -1.7854129426100185
lowerneck -16.507954555394903 -2.812365266772963 -1.9054993602768078
upperneck 20.0256833322077 -3.6414001440918233 1.202579146249899
head 9.040968651243299 -1.7355753827724854 0.27121748228441606
lclavicle -1.9782879750828738e-15 8.838437295877914e-16
lhumerus -33.00602930466374 4.11937543508656 83.12476725470864
lradius 23.447991197390355
lwrist 3.9682110300071143
lhand -28.382657094875007 22.153683209596288
lfingers 7.12502
lthumb -1.7554633304282556 52.1157212567925
rclavicle -1.9782879750828738e-15 8.838437295877914e-16
rhumerus -24.772121351972245 -10.600695378914327 -81.92448439368914
rradius 27.685704493731787
rwrist 2.1730985601550525
rhand -17.971571780848763 23.280502966743946
rfingers 7.12502
rthumb 8.297705156775027 -6.539652306846694
82
root 0.14354308601375998 17.809218301834456 33.81200157878617 -1.1095843144894586 -5.35674481873008 -7.869451128013372
lfemur -24.695666096261757 -2.8799806190831467 -9.529842551542744
ltibia 26.826461643677412
lfoot -6.076007313874153 8.271008954741106
ltoes -4.0440371685690915
rfemur 2.58830627256245 6.290821553120331 35.29626235102765
rtibia 25.806593875890982
rfoot -19.820068929012187 -6.758651408468918
rtoes 5.911083896699716
lowerback 9.341527453355765 2.4350828243105385 7.322787383482591
upperback 0.47870527014308306 4.106301941280952 2.262589705147814
thorax -4.5957418263843755 1.906376764488456 -2.039265526878816
lowerneck -16.666546540904587 -2.8141745958953788 -1.7997512798365891
upperneck 19.910005479747973 -3.651793317178362 1.2095955065286805
head 9.025816717657008 -1.7369294578409897 0.25690546707116774
lclavicle -1.7175812557736374e-15 1.1240598282904238e-15
lhumerus -33.75225141186672 5.802400351179395 82.52647067953306
lradius 22.27192495315011
lwrist 3.379881569098118
lhand -28.328855122500205 22.82454213526755
lfingers 7.12502
lthumb -1.7034737080383782 52.78559386486315
rclavicle -1.7175812557736374e-15 1.1240598282904238e-15
rhumerus -23.78567746161364 -9.868216218209982 -81.94609745773408
rradius 28.2995707292909
rwrist 1.8358176255725152
rhand -18.001202669779712 23.755244867125924
rfingers 7.12502
rthumb 8.269098768571864 -6.066184819517947
83
root 0.17180989433925947 17.73484571237842 32.72106506493341 -0.7575464261332012 -6.030351358503328 -8.136255189736234
lfemur -24.695925894429767 -4.789357342347181 -9.084517992591804
ltibia 17.675620204040264
lfoot -6.239999086527123 8.893052713883687
ltoes -3.9805924449725345
rfemur 4.294822094267474 6.314722442502869 34.92290488327552
rtibia 24.3575952005697
rfoot -21.09537780417798 -6.800116023653286
rtoes 3.1747381299873187
lowerback 9.054305514117106 2.592763276158538 7.28039198865353
upperback 0.41030248690182447 4.289959232997024 2.162911160364537
thorax -4.520316459794087 2.0010157676329254 -2.309482940156343
lowerneck -16.811336792497347 -2.8442432275926097 -1.7583208561650878
upperneck 19.81869571762625 -3.7089903385984595 1.2105182316717216
head 9.010719091682256 -1.756190088652138 0.2362735362031267
lclavicle -2.5317403310572124e-15 3.741816700367742e-16
lhumerus -34.825417268231995 7.0996307783221955 81.74278117161674
lradius 20.65760291230949
lwrist 2.3614515034095844
lhand -28.172902827534415 23.437169273756588
lfingers 7.12502
lthumb -1.5528224487045406 53.400298853529726
rclavicle -2.5317403310572124e-15 3.741816700367742e-16
rhumerus -23.227358239210858 -10.123206575030084 -82.06107877846127
rradius 28.430494093860393
rwrist 1.5904055063499936
rhand -18.102300086510404 23.747904952541678
rfingers 7.12502
rthumb 8.171526327451568 -6.073796714569848
84
root 0.23071490412723464 17.68022538776217 33.46539558565397 -0.6086905738067485 -6.243438553761221 -7.8532230196723205
lfemur -23.751851083512435 -5.5047134962808455 -9.030785109543434
ltibia 14.177610591768499
lfoot -5.555449818612066 8.381271693490849
ltoes -3.308160198770094
rfemur 6.779242692398178 6.463368209915066 34.69671715679612
rtibia 25.073806040792128
rfoot -21.16623189897795 -5.889022957745712
rtoes 0.28833178276583515
lowerback 8.87984028438999 2.768811885013866 7.260678409020407
upperback 0.38782850119938317 4.49773966830301 2.0916586139729247
thorax -4.440998621709709 2.1066581923319 -2.2810306112624903
lowerneck -16.80913402885475 -2.874655176776348 -1.716030529226862
upperneck 19.851154846736538 -3.7654426160720487 1.2975214366064867
head 9.028832079117084 -1.775192356308057 0.25083123831331183
lclavicle -2.096772061895222e-15 7.744963724240267e-16
lhumerus -35.46417539519689 8.619158130021168 81.0189851867303
lradius 19.342382879935247
lwrist 1.2250978890927304
lhand -27.790707961583735 24.013925960638968
lfingers 7.12502
lthumb -1.183676655261566 53.98050506016929
rclavicle -2.096772061895222e-15 7.744963724240267e-16
rhumerus -22.732832679629 -10.430105586769873 -81.90361178862267
rradius 28.595372931816968
rwrist 1.8836077694631115
rhand -18.128836644422663 23.84302051384741
rfingers 7.12502
rthumb 8.145900654440613 -5.9799822302384795
85
root 0.28805036781595705 17.639471560239617 34.02735668834904 -0.770271899616578 -6.236433505879994 -7.382380082672444
lfemur -23.385056619564125 -5.26571653000857 -9.988745331227001
ltibia 14.666386887358005
lfoot -4.642779709327033 6.30630746405593
ltoes -2.4931190113858
rfemur 8.537767672338727 6.377422799411261 34.020394353666475
rtibia 26.909553262980282
rfoot -20.009193985854345 -4.294684479697556
rtoes -2.6572481492253615
lowerback 8.781298454475495 2.8429208813728732 6.919635385633864
upperback 0.37799187888590724 4.544433868469049 1.9514871977265917
thorax -4.407687205940133 2.1371766301300648 -2.1995122080508853
lowerneck -16.7272687668326 -2.9281362129249344 -1.7136507488574835
upperneck 19.933713546603183 -3.8560404323880397 1.3795668740976874
head 9.05275352681852 -1.8083841039606607 0.2626225774560907
lclavicle -1.9524428852210472e-15 9.073395809221574e-16
lhumerus -36.221032456371056 9.881148779565965 80.27095130707397
lradius 18.086215112653413
lwrist -0.16434347840830466
lhand -27.36227781142085 24.13979311102374
lfingers 7.12502
lthumb -0.7698837049670398 54.110129220943755
rclavicle -1.9524428852210472e-15 9.073395809221574e-16
rhumerus -22.67840202922673 -11.076158582999195 -81.76962690759547
rradius 28.708759650985215
rwrist 2.125220289981815
rhand -18.22128722495434 23.89230975215483
rfingers 7.12502
rthumb 8.056665711508678 -5.934153644839769
86
root 0.36603123945739824 17.627613319176533 35.57688998560228 -1.1220978099369776 -5.941648826742373 -6.554050164792569
lfemur -22.78556247039715 -4.438303416031255 -11.440718674551556
ltibia 18.355181812285785
lfoot -3.5001968145549687 3.6455558606142144
ltoes -1.222185318571594
rfemur 9.85150478637048 6.091427034957703 33.07563357366234
rtibia 30.746553063601528
rfoot -16.203232531120857 -1.9425176322197686
rtoes -4.337323024377961
lowerback 8.75705897195345 2.931494295520897 6.481394873348338
upperback 0.37900336885548414 4.601989470055782 1.759838682063526
thorax -4.393422816354512 2.1727458005769233 -2.0213318484370313
lowerneck -16.55664083717479 -2.9889107969975472 -1.7326579225493737
upperneck 20.098269831952173 -3.9544314881413256 1.4985601856350836
head 9.095749130862341 -1.8457590440674343 0.2898187896481611
lclavicle -1.364875412927697e-15 1.4486394367149744e-15
lhumerus -36.80760692267405 11.066603868406984 79.63450390782023
lradius 17.230046889128932
lwrist -1.2812511605753665
lhand -26.74021416052476 24.046537305781822
lfingers 7.12502
lthumb -0.1690930039016501 54.0198847427277
rclavicle -1.364875412927697e-15 1.4486394367149744e-15
rhumerus -22.922964687827875 -11.734318644056534 -81.55481549107364
rradius 28.933710612858476
rwrist 2.5096197671009777
rhand -18.233687488306142 23.98556903716694
rfingers 7.12502
rthumb 8.044690241516017 -5.8429054598139905
